<svg width="857" height="778" viewBox="0 0 857 778" fill="none" xmlns="http://www.w3.org/2000/svg">
<path d="M1.57013 603.714C4.13943 599.575 8.24317 599.289 13.9884 602.929C143.738 678.224 284.978 715.907 437.566 715.907C539.339 715.907 639.827 696.887 738.995 658.99L750.236 653.994C755.16 651.853 758.586 650.425 760.691 649.355C768.756 646.215 774.608 647.713 779.426 653.994C783.708 660.203 782.637 665.984 775.144 671.123C766.008 677.903 753.733 685.753 739.245 694.46C694.853 720.974 645.037 741.421 589.904 756.052C460.77 790.938 323.874 783.726 199.121 735.462C127.887 707.554 62.2526 667.061 5.35271 615.918C1.78424 613.278 0 610.566 0 608.068C0 606.391 0.713695 604.856 1.78424 603.429L1.57013 603.714ZM235.84 381.827C235.84 345.963 244.654 315.346 262.354 289.867C280.018 264.531 304.105 245.261 335.151 232.236C363.556 220.282 397.813 211.717 439.065 206.543C452.982 204.902 475.927 202.868 507.579 200.334V187.131C507.579 153.944 503.833 131.534 496.874 120.222C486.097 104.877 469.04 97.0268 445.488 97.0268H438.993C421.865 98.6683 407.02 104.021 394.53 113.442C382.041 123.077 374.012 135.923 370.443 152.552C368.302 163.258 363.092 169.146 354.92 170.751L264.995 159.511C256.145 157.37 251.72 153.087 251.72 145.594C251.72 143.952 251.97 142.382 252.505 140.241C261.319 94.2077 283.016 59.9503 317.451 37.469C352.28 15.4872 392.389 2.67635 438.422 0H457.692C516.572 0 563.212 15.4872 596.434 46.0333C601.252 51.386 606.069 56.7387 610.887 63.162C615.169 69.0499 618.88 74.367 620.986 79.2201C623.662 84.0018 626.338 90.996 627.944 99.5604C630.085 108.624 631.691 114.548 632.762 117.76C633.832 121.471 634.974 128.465 635.474 139.706C635.83 150.875 636.187 157.298 636.187 159.439V347.855C636.187 361.272 638.328 373.548 642.075 384.824C645.822 395.993 649.569 404.094 653.316 408.876L671.515 432.927C674.727 437.78 676.368 442.062 676.368 445.774C676.368 450.056 674.227 453.838 669.945 456.979C627.123 494.448 603.571 514.788 599.896 517.999C594.008 522.817 586.514 523.352 577.414 519.605C570.811 514.084 564.543 508.174 558.644 501.906L547.582 489.523C543.672 484.634 539.9 479.636 536.27 474.535L525.565 459.013C496.66 490.629 468.362 510.399 439.921 518.428C422.293 523.78 400.918 526.528 374.618 526.528C335.008 526.528 301.821 514.288 276.128 489.63C250.435 465.008 237.589 430.215 237.589 384.717L235.805 382.005L235.84 381.827ZM369.765 366.197C369.765 386.394 374.761 402.595 384.931 414.871C395.101 427.003 409.018 433.141 426.147 433.141C427.753 433.141 429.93 432.891 433.105 432.427C436.317 431.857 437.887 431.607 439.029 431.607C460.94 425.897 477.569 411.873 489.844 389.57C495.732 379.578 500.014 368.873 502.691 357.097C505.902 345.678 506.973 336.043 507.508 328.549C508.043 321.591 508.043 309.279 508.043 292.686V273.416C478.068 273.416 455.087 275.557 439.529 279.84C394.031 292.686 371.014 321.591 371.014 366.553L369.765 365.84V366.197ZM696.709 616.953C697.779 614.812 699.385 613.028 701.419 610.887C714.337 602.215 726.898 596.256 738.888 593.044C757.726 588.262 776.998 585.392 796.412 584.48C801.408 584.052 806.403 584.48 811.042 585.551C834.237 587.692 848.511 591.546 852.865 597.327C855.113 600.538 856.076 605.463 856.076 611.244V616.596C856.076 634.796 851.081 656.206 841.267 680.829C831.347 705.451 817.573 725.363 800.016 740.779C797.411 742.92 795.02 743.991 792.986 743.991C791.915 743.991 790.845 743.991 789.774 743.563C786.563 741.992 785.956 739.28 787.49 734.998C806.76 690.035 816.252 658.526 816.252 640.791C816.252 635.438 815.182 631.156 813.148 628.515C807.974 622.591 793.521 619.344 769.47 619.344C760.798 619.344 750.45 619.915 738.424 620.986C725.47 622.591 713.445 624.197 702.739 625.803C699.528 625.803 697.458 625.303 696.316 624.233C695.245 623.162 695.031 622.556 695.602 621.485C695.602 620.879 695.816 620.415 696.316 619.237V617.096L696.709 616.953Z" fill="white"/>
</svg>
