<svg width="28" height="28" viewBox="0 0 28 28" fill="none" xmlns="http://www.w3.org/2000/svg">
<path d="M27.9638 7.14634C27.9638 6.28534 27.8913 5.4278 27.6858 4.58953C27.3169 3.06258 26.4471 1.89622 25.1454 1.03956C24.4758 0.60204 23.7388 0.333382 22.9555 0.191655C22.3541 0.0822276 21.7448 0.0323621 21.1346 0.0183846C21.0891 0.0139772 21.0393 0.00440732 20.9886 0H6.97433C6.7969 0.0139775 6.61941 0.0227287 6.44199 0.0314804C5.57217 0.081409 4.70758 0.172389 3.88757 0.500545C2.33065 1.11568 1.20553 2.19107 0.549907 3.74074C0.322615 4.2649 0.208088 4.82054 0.126804 5.38581C0.0586166 5.84171 0.0219099 6.30196 0.00875095 6.76221C0.00875095 6.79898 0 6.83487 0 6.87157V21.1319C0.00875167 21.2964 0.018385 21.46 0.0271367 21.6246C0.0865725 22.5775 0.20897 23.5207 0.610225 24.3958C1.36639 26.0505 2.63658 27.139 4.38062 27.6631C4.86757 27.8136 5.37806 27.8819 5.88774 27.9274C6.53467 27.9913 7.18065 28 7.82758 28H20.6852C21.2955 28 21.9056 27.9589 22.5158 27.8819C23.4766 27.7585 24.3779 27.4758 25.1935 26.9386C26.1726 26.2911 26.9104 25.4344 27.3834 24.3634C27.6019 23.8708 27.7252 23.3475 27.8161 22.8181C27.9481 22.0297 27.9752 21.2317 27.9752 20.4345C27.9708 16.0042 27.9751 11.5749 27.9708 7.14458L27.9638 7.14634ZM20.478 11.7989V18.4622C20.478 18.9496 20.4098 19.4282 20.1913 19.8701C19.8548 20.5579 19.3084 20.991 18.575 21.201C18.1693 21.3192 17.7506 21.383 17.3274 21.4014C16.2208 21.4566 15.26 20.704 15.0641 19.6102C14.8955 18.7081 15.3281 17.7141 16.2749 17.2494C16.6482 17.0674 17.0539 16.958 17.4586 16.8758C17.9001 16.7804 18.3416 16.6938 18.7786 16.5932C19.1021 16.5205 19.311 16.3245 19.3748 15.9911C19.3932 15.9185 19.3975 15.8407 19.3975 15.768C19.3975 13.6487 19.3975 11.5294 19.3975 9.41529C19.3975 9.34269 19.3836 9.26915 19.3661 9.2009C19.3206 9.02329 19.193 8.91827 19.0112 8.92702C18.8241 8.93577 18.6423 8.96814 18.4604 9.00491C17.5722 9.17818 16.6849 9.35579 15.8011 9.53781L11.4896 10.4084C11.4712 10.4129 11.4485 10.4225 11.4301 10.4225C11.1067 10.5135 10.993 10.6596 10.9791 10.9964C10.9747 11.0464 10.9791 11.0971 10.9791 11.147C10.9747 14.1824 10.9791 17.2179 10.9747 20.2525C10.9747 20.7452 10.9196 21.2282 10.7246 21.6832C10.4012 22.4305 9.82775 22.9004 9.05408 23.1235C8.64407 23.2416 8.22531 23.3107 7.79698 23.3238C6.68149 23.365 5.75224 22.6221 5.56166 21.524C5.39733 20.5763 5.83006 19.5551 6.90444 19.0992C7.32314 18.926 7.75587 18.8306 8.19736 18.7396C8.52954 18.6713 8.86702 18.6031 9.1992 18.5348C9.64504 18.4395 9.87755 18.1568 9.90028 17.7009V17.5277C9.90028 14.0731 9.90028 10.6185 9.90028 7.16384C9.90028 7.01771 9.91867 6.87246 9.95015 6.73073C10.0323 6.39823 10.2692 6.20657 10.5874 6.12869C10.8837 6.05081 11.1889 5.9966 11.4887 5.93269C12.3445 5.75942 13.196 5.58615 14.0518 5.41729L16.6972 4.87915C17.4804 4.72427 18.2585 4.56504 19.0417 4.41015C19.297 4.36028 19.5567 4.30513 19.8154 4.28675C20.1747 4.25527 20.4256 4.48274 20.4624 4.84767C20.471 4.93431 20.4763 5.02094 20.4763 5.10751V11.7936L20.478 11.7989Z" fill="white"/>
</svg>
